<svg width="24" height="29" viewBox="0 0 24 29" fill="none" xmlns="http://www.w3.org/2000/svg">
<path d="M19.3452 15.6329C19.3128 12.1263 22.29 10.4203 22.4262 10.3409C20.74 7.94402 18.1266 7.61654 17.2082 7.59043C15.0133 7.36521 12.8842 8.87099 11.7661 8.87099C10.6256 8.87099 8.90379 7.61219 7.04807 7.64918C4.66006 7.68508 2.42605 9.0331 1.2008 11.1264C-1.3278 15.3946 0.558052 21.6669 2.98065 25.1169C4.19251 26.8066 5.60857 28.6931 7.46206 28.6268C9.27539 28.5539 9.95273 27.4996 12.141 27.4996C14.3092 27.4996 14.9452 28.6268 16.8355 28.5843C18.7817 28.5539 20.0069 26.8871 21.1764 25.1822C22.5768 23.2456 23.1392 21.3383 23.1615 21.2404C23.1158 21.2252 19.382 19.8358 19.3452 15.6329Z" fill="white"/>
<path d="M15.7743 5.32087C16.7496 4.1317 17.4169 2.51385 17.2317 0.87207C15.8201 0.932998 14.0547 1.82406 13.0382 2.98713C12.1388 4.01202 11.3353 5.69188 11.5429 7.27164C13.1286 7.38697 14.7566 6.49155 15.7743 5.32087Z" fill="white"/>
</svg>
