<svg width="28" height="34" viewBox="0 0 28 34" fill="none" xmlns="http://www.w3.org/2000/svg">
<path d="M17.5156 9.74658C18.6153 9.3419 19.7927 9.00288 20.96 9.12256L20.9971 9.12451C21.9598 9.15188 24.5717 9.48143 26.4121 11.728C25.37 12.4665 22.9872 14.5374 23.0195 18.0688C23.0426 20.7023 24.2308 22.4676 25.416 23.5659C26.1683 24.2631 26.9228 24.6943 27.3867 24.9214C27.3853 24.9255 27.3843 24.9299 27.3828 24.9341C27.2953 25.1849 27.1638 25.5352 26.9824 25.9517C26.619 26.7859 26.0594 27.8806 25.2637 28.981L25.2568 28.9907C24.5673 29.996 23.8947 30.939 23.127 31.6382C22.3699 32.3276 21.5508 32.7516 20.5664 32.7671H20.5625C19.569 32.7894 18.915 32.5116 18.1328 32.187C17.3364 31.8565 16.4381 31.4937 15.0635 31.4937C13.684 31.4937 12.7728 31.8312 11.9639 32.1606C11.2641 32.4457 10.6786 32.7051 9.89844 32.7915L9.55176 32.8169C8.65155 32.8485 7.81521 32.4102 6.99609 31.6606C6.38035 31.0971 5.80865 30.3897 5.25977 29.6509L4.71777 28.9058C3.33815 26.9397 2.10352 24.1561 1.5791 21.2573C1.05372 18.3532 1.25109 15.395 2.65234 13.0298L2.65332 13.0278C4.00708 10.715 6.47239 9.23332 9.09277 9.19385H9.2793C10.1986 9.2146 11.1055 9.52042 11.9893 9.86084C12.4464 10.0369 12.915 10.229 13.3408 10.3716C13.7666 10.5141 14.2059 10.6274 14.623 10.6274C15.0438 10.6274 15.517 10.49 15.9785 10.3276C16.4302 10.1687 16.9969 9.93748 17.5156 9.74658ZM20.5713 1.29053C20.5999 2.87939 19.9256 4.4404 18.9473 5.63623C17.9205 6.81538 16.3557 7.7044 14.8262 7.75635C14.7878 6.21467 15.5787 4.59228 16.4922 3.55127L16.4932 3.55029C17.4886 2.41146 19.153 1.51403 20.5713 1.29053Z" fill="black" stroke="black"/>
</svg>
