<svg width="66" height="174" viewBox="0 0 66 174" fill="none" xmlns="http://www.w3.org/2000/svg">
<path d="M2.14002 78.5598L0.906132 78.5798L2.14002 78.5598ZM65.5077 170.206C65.6312 170.876 65.188 171.52 64.5177 171.643L53.5951 173.656C52.9249 173.779 52.2814 173.336 52.1579 172.666C52.0344 171.995 52.4777 171.352 53.1479 171.228L62.8569 169.44L61.0681 159.731C60.9446 159.06 61.3878 158.417 62.0581 158.293C62.7284 158.17 63.3718 158.613 63.4953 159.283L65.5077 170.206ZM17 1.0001C18.0765 1.60345 18.0766 1.60315 18.0767 1.60296C18.0767 1.60303 18.0768 1.60294 18.0767 1.60309C18.0765 1.6034 18.0761 1.60413 18.0754 1.60528C18.0742 1.60759 18.0719 1.6116 18.0688 1.61731C18.0625 1.62871 18.0525 1.64691 18.0389 1.67186C18.0117 1.72177 17.9702 1.79872 17.9154 1.90252C17.8057 2.11011 17.6427 2.4251 17.4341 2.84593C17.017 3.68761 16.4178 4.95264 15.699 6.62874C14.2615 9.98098 12.3461 14.9771 10.4535 21.5191C6.66831 34.6023 2.97347 53.8698 3.3739 78.5398L2.14002 78.5598L0.906132 78.5798C0.50131 53.6397 4.23644 34.1273 8.08259 20.8332C10.0056 14.1865 11.9561 9.09466 13.4307 5.65603C14.168 3.9367 14.7863 2.63058 15.2227 1.74998C15.4409 1.30967 15.6137 0.975728 15.7331 0.749681C15.7928 0.636659 15.8392 0.550608 15.8712 0.491723C15.8873 0.462279 15.8997 0.439631 15.9085 0.423791C15.9128 0.415873 15.9163 0.409657 15.9188 0.405148C15.92 0.402898 15.9211 0.40107 15.9218 0.399665C15.9222 0.39897 15.9226 0.398236 15.9228 0.397889C15.9232 0.397263 15.9235 0.396749 17 1.0001ZM2.14002 78.5598L3.3739 78.5398C3.76889 102.874 19.0413 125.553 34.4269 142.263C42.0974 150.593 49.7467 157.387 55.4793 162.098C58.3447 164.453 60.7289 166.285 62.3943 167.528C63.227 168.149 63.8798 168.622 64.323 168.939C64.5446 169.098 64.7139 169.217 64.827 169.297C64.8835 169.336 64.926 169.366 64.9541 169.385C64.9681 169.395 64.9785 169.402 64.9852 169.407C64.9885 169.409 64.991 169.411 64.9925 169.412C64.9932 169.413 64.9936 169.413 64.994 169.413C64.9942 169.413 64.9942 169.413 64.2941 170.43C63.5941 171.446 63.5936 171.445 63.5928 171.445C63.5923 171.445 63.5913 171.444 63.5902 171.443C63.588 171.442 63.5848 171.439 63.5807 171.437C63.5726 171.431 63.5607 171.423 63.5453 171.412C63.5143 171.39 63.4688 171.359 63.4093 171.317C63.2902 171.233 63.1148 171.109 62.8869 170.946C62.4311 170.62 61.7651 170.137 60.9186 169.506C59.2259 168.243 56.8109 166.387 53.9123 164.005C48.1168 159.242 40.3785 152.37 32.6112 143.934C17.1211 127.111 1.3164 103.855 0.906132 78.5798L2.14002 78.5598Z" fill="#484848"/>
</svg>
