<svg width="54" height="67" viewBox="0 0 54 67" fill="none" xmlns="http://www.w3.org/2000/svg">
<path d="M42.9999 37.3521L43.846 37.8852L42.9999 37.3521ZM1.19595 58.2892C0.818285 58.6921 0.83879 59.325 1.24176 59.7026L7.80849 65.8572C8.21146 66.2348 8.84429 66.2143 9.22196 65.8114C9.59963 65.4084 9.57913 64.7755 9.17616 64.3979L3.33907 58.9272L8.80974 53.0901C9.18741 52.6871 9.16691 52.0543 8.76394 51.6766C8.36097 51.299 7.72814 51.3195 7.35047 51.7224L1.19595 58.2892ZM52.2117 0.388031C51.2384 0.617819 51.2383 0.617384 51.2382 0.61701C51.2382 0.616968 51.2381 0.616655 51.2381 0.616571C51.2381 0.616401 51.2381 0.616477 51.2382 0.616797C51.2383 0.617439 51.2387 0.619062 51.2393 0.621659C51.2405 0.626854 51.2425 0.635948 51.2453 0.648897C51.251 0.674795 51.2598 0.716108 51.2711 0.772479C51.2938 0.885224 51.3265 1.05818 51.3642 1.28847C51.4397 1.74909 51.5353 2.43889 51.6109 3.33501C51.7621 5.12734 51.8332 7.74392 51.5041 11.0023C50.8464 17.515 48.5884 26.6052 42.1538 36.8191L42.9999 37.3521L43.846 37.8852C50.4602 27.3863 52.8081 17.9945 53.494 11.2033C53.8368 7.80977 53.7642 5.06896 53.6038 3.16688C53.5235 2.2158 53.4213 1.47415 53.3379 0.965105C53.2962 0.710571 53.2592 0.514144 53.232 0.378719C53.2184 0.311004 53.2072 0.258534 53.1992 0.22167C53.1952 0.203237 53.1919 0.188705 53.1895 0.17812C53.1883 0.172827 53.1873 0.16852 53.1865 0.165206C53.1861 0.163548 53.1858 0.162139 53.1855 0.160979C53.1854 0.160399 53.1852 0.159714 53.1852 0.159424C53.185 0.158803 53.1849 0.158244 52.2117 0.388031ZM42.9999 37.3521L42.1538 36.8191C35.8019 46.9018 25.779 52.2015 17.2595 54.9791C13.0071 56.3655 9.15401 57.1151 6.36558 57.5177C4.97217 57.7189 3.84683 57.8331 3.07313 57.8969C2.68634 57.9288 2.38763 57.9481 2.18744 57.9593C2.08735 57.9649 2.01192 57.9686 1.96244 57.9707C1.9377 57.9718 1.91945 57.9725 1.90786 57.973C1.90206 57.9732 1.89792 57.9734 1.89548 57.9734C1.89425 57.9735 1.89345 57.9735 1.89307 57.9735C1.89288 57.9735 1.89291 57.9735 1.89282 57.9735C1.89296 57.9735 1.89321 57.9735 1.92559 58.973C1.95798 59.9725 1.95844 59.9725 1.95901 59.9724C1.95934 59.9724 1.96001 59.9724 1.96067 59.9724C1.962 59.9723 1.96375 59.9723 1.96593 59.9722C1.97028 59.9721 1.97633 59.9718 1.98405 59.9715C1.9995 59.9709 2.02165 59.9701 2.05034 59.9688C2.10771 59.9663 2.19123 59.9623 2.2996 59.9562C2.51631 59.944 2.83245 59.9235 3.23748 59.8901C4.0474 59.8234 5.2135 59.7048 6.65137 59.4972C9.52552 59.0822 13.4944 58.3103 17.8795 56.8806C26.635 54.026 37.1493 48.5152 43.846 37.8852L42.9999 37.3521Z" fill="black"/>
</svg>
