<svg width="315" height="249" viewBox="0 0 315 249" fill="none" xmlns="http://www.w3.org/2000/svg">
<path d="M261.943 83.3532L261.701 82.9155L261.943 83.3532ZM10.9434 248.353L11.346 242.594L6.15683 245.125L10.9434 248.353ZM312.443 0.853117L311.953 0.95241C312.159 1.97181 312.445 3.39777 312.7 5.17798L313.195 5.10727L313.689 5.03657C313.431 3.22646 313.14 1.77722 312.933 0.753825L312.443 0.853117ZM313.785 13.7563L313.285 13.7533C313.27 16.3523 313.078 19.2302 312.598 22.329L313.092 22.4056L313.586 22.4821C314.075 19.3304 314.27 16.4031 314.285 13.7593L313.785 13.7563ZM311.15 30.8479L310.672 30.7013C309.877 33.291 308.865 35.9789 307.585 38.7401L308.039 38.9503L308.492 39.1605C309.791 36.3572 310.82 33.6267 311.628 30.9946L311.15 30.8479ZM303.912 46.5552L303.488 46.2903C302.041 48.6074 300.391 50.9583 298.515 53.3297L298.907 53.64L299.299 53.9502C301.198 51.5501 302.869 49.169 304.336 46.8201L303.912 46.5552ZM293.195 60.1644L292.835 59.8176C290.929 61.7961 288.853 63.7808 286.592 65.7641L286.922 66.14L287.252 66.5159C289.533 64.5146 291.63 62.5106 293.555 60.5112L293.195 60.1644ZM280.192 71.6125L279.891 71.2136C277.679 72.8852 275.326 74.5509 272.821 76.2063L273.097 76.6235L273.373 77.0406C275.894 75.3739 278.265 73.6961 280.494 72.0114L280.192 71.6125ZM265.744 81.1932L265.492 80.7616C264.259 81.4826 262.996 82.2006 261.701 82.9155L261.943 83.3532L262.185 83.791C263.487 83.0721 264.757 82.35 265.997 81.6248L265.744 81.1932ZM261.943 83.3532L261.701 82.9155C260.407 83.6302 259.121 84.3269 257.844 85.0063L258.079 85.4477L258.314 85.8892C259.595 85.2073 260.886 84.5081 262.185 83.791L261.943 83.3532ZM250.372 89.3916L250.151 88.9429C247.508 90.2414 244.902 91.4655 242.332 92.6196L242.536 93.0757L242.741 93.5319C245.322 92.3729 247.939 91.1439 250.592 89.8404L250.372 89.3916ZM234.571 96.4791L234.383 96.0158C231.652 97.123 228.961 98.1522 226.308 99.1093L226.478 99.5796L226.648 100.05C229.313 99.0885 232.016 98.0546 234.759 96.9425L234.571 96.4791ZM218.265 102.356L218.115 101.879C215.307 102.765 212.542 103.572 209.815 104.308L209.945 104.791L210.076 105.274C212.816 104.534 215.595 103.723 218.416 102.833L218.265 102.356ZM201.535 106.874L201.425 106.386C198.563 107.031 195.743 107.602 192.961 108.11L193.051 108.602L193.141 109.093C195.936 108.584 198.769 108.009 201.645 107.361L201.535 106.874ZM184.513 109.985L184.442 109.49C181.539 109.903 178.674 110.253 175.844 110.553L175.897 111.051L175.949 111.548C178.791 111.247 181.667 110.895 184.583 110.48L184.513 109.985ZM167.263 111.829L167.225 111.33C164.319 111.549 161.445 111.726 158.597 111.873L158.623 112.372L158.649 112.872C161.503 112.724 164.385 112.547 167.3 112.328L167.263 111.829ZM149.958 112.748L149.94 112.248C147.033 112.354 144.149 112.444 141.281 112.532L141.296 113.032L141.312 113.531C144.18 113.443 147.066 113.354 149.976 113.248L149.958 112.748ZM132.637 113.311L132.619 112.812C129.721 112.915 126.834 113.033 123.951 113.182L123.976 113.681L124.002 114.181C126.878 114.032 129.76 113.914 132.654 113.811L132.637 113.311ZM115.327 114.238L115.288 113.739C112.412 113.966 109.534 114.24 106.647 114.577L106.705 115.073L106.763 115.57C109.636 115.235 112.501 114.962 115.367 114.736L115.327 114.238ZM98.1203 116.272L98.0393 115.779C95.21 116.243 92.3667 116.782 89.5038 117.411L89.611 117.9L89.7183 118.388C92.5627 117.763 95.3884 117.227 98.2013 116.766L98.1203 116.272ZM81.2116 119.999L81.0762 119.517C78.3316 120.289 75.5645 121.153 72.7701 122.123L72.934 122.595L73.0978 123.068C75.873 122.105 78.621 121.246 81.3469 120.48L81.2116 119.999ZM64.8335 125.679L64.6419 125.217C62.0314 126.3 59.3942 127.481 56.7264 128.769L56.9439 129.219L57.1613 129.67C59.8121 128.389 62.4321 127.216 65.0251 126.141L64.8335 125.679ZM49.2527 133.193L49.0116 132.755C47.7456 133.452 46.4723 134.173 45.1913 134.921L45.4434 135.353L45.6955 135.785C46.9693 135.041 48.2352 134.323 49.4938 133.631L49.2527 133.193ZM45.4434 135.353L45.1913 134.921C43.7874 135.741 42.4242 136.57 41.1006 137.409L41.3682 137.831L41.6358 138.254C42.949 137.422 44.3019 136.598 45.6955 135.785L45.4434 135.353ZM33.6356 143.164L33.3352 142.764C30.7104 144.738 28.2764 146.751 26.0216 148.796L26.3576 149.167L26.6935 149.537C28.9249 147.513 31.3351 145.519 33.9361 143.564L33.6356 143.164ZM19.7127 155.847L19.3399 155.514C17.1556 157.958 15.1955 160.434 13.4411 162.931L13.8502 163.219L14.2593 163.506C15.9911 161.041 17.9269 158.596 20.0855 156.18L19.7127 155.847ZM8.93713 171.231L8.4951 170.997C6.96893 173.884 5.68572 176.779 4.6175 179.666L5.08643 179.839L5.55535 180.013C6.60861 177.167 7.87394 174.311 9.37915 171.464L8.93713 171.231ZM2.40661 188.873L1.91898 188.762C1.20183 191.927 0.713822 195.056 0.416204 198.126L0.913868 198.174L1.41152 198.222C1.70531 195.192 2.1869 192.105 2.89425 188.983L2.40661 188.873ZM0.564095 207.585L0.0641952 207.595C0.132075 210.867 0.388326 214.03 0.778337 217.051L1.27424 216.987L1.77011 216.923C1.38433 213.935 1.13105 210.807 1.06398 207.575L0.564095 207.585ZM2.94885 226.27L2.46169 226.383C3.23597 229.731 4.12738 232.796 5.02838 235.509L5.5029 235.352L5.97743 235.194C5.08516 232.508 4.20254 229.473 3.436 226.158L2.94885 226.27ZM8.89894 244.148L8.4422 244.352C8.46637 244.406 8.49042 244.46 8.51431 244.513L8.97061 244.309L9.4269 244.104C9.40331 244.051 9.37955 243.998 9.35567 243.945L8.89894 244.148Z" fill="black"/>
</svg>
