<svg width="106" height="111" viewBox="0 0 106 111" fill="none" xmlns="http://www.w3.org/2000/svg">
<path d="M18.5598 60.6633L17.5443 61.3645L18.5598 60.6633ZM104.852 102.274C105.258 102.822 105.143 103.595 104.595 104.001L95.6735 110.615C95.126 111.021 94.3532 110.907 93.9472 110.359C93.5413 109.812 93.6561 109.039 94.2036 108.633L102.134 102.753L96.2543 94.8225C95.8484 94.2751 95.9632 93.5022 96.5107 93.0963C97.0582 92.6904 97.831 92.8051 98.237 93.3526L104.852 102.274ZM2.39707 1.00002C3.59398 1.30052 3.59411 1.29998 3.59422 1.29954C3.59423 1.29953 3.59431 1.29918 3.59432 1.29916C3.59433 1.29911 3.59424 1.29945 3.59406 1.30021C3.59369 1.30171 3.59292 1.30482 3.59179 1.30953C3.58951 1.31894 3.58573 1.33473 3.58059 1.35683C3.57031 1.40104 3.55458 1.47046 3.5345 1.5645C3.49433 1.75258 3.43675 2.03907 3.37054 2.41908C3.2381 3.17915 3.07118 4.31304 2.9399 5.78169C2.67731 8.71909 2.55741 12.9941 3.14042 18.2952C4.30567 28.8903 8.28106 43.6081 19.5752 59.962L18.5598 60.6633L17.5443 61.3645C5.99938 44.6475 1.89344 29.5337 0.687115 18.565C0.0843321 13.0841 0.206085 8.64406 0.481604 5.56194C0.61937 4.02081 0.79561 2.81881 0.939076 1.99543C1.01081 1.58372 1.07437 1.26659 1.12084 1.04898C1.14408 0.94018 1.16305 0.856245 1.17664 0.797802C1.18344 0.768576 1.18889 0.745723 1.19286 0.729319C1.19484 0.721118 1.19646 0.714526 1.19768 0.709559C1.19829 0.707072 1.19881 0.704995 1.19922 0.703323C1.19943 0.702487 1.19967 0.701535 1.19977 0.701116C1.19999 0.700269 1.20017 0.699524 2.39707 1.00002ZM18.5598 60.6633L19.5752 59.962C30.7601 76.1577 51.7607 86.6374 70.1817 93.0729C79.3604 96.2795 87.8337 98.4602 94.0126 99.839C97.1012 100.528 99.6141 101.016 101.352 101.332C102.221 101.49 102.897 101.604 103.353 101.679C103.581 101.717 103.755 101.744 103.871 101.762C103.929 101.772 103.972 101.778 104.001 101.783C104.015 101.785 104.026 101.786 104.032 101.787C104.036 101.788 104.038 101.788 104.04 101.788C104.041 101.789 104.041 101.789 104.041 101.789C104.042 101.789 104.042 101.789 103.86 103.009C103.679 104.23 103.679 104.23 103.678 104.23C103.677 104.23 103.676 104.23 103.675 104.229C103.673 104.229 103.67 104.229 103.665 104.228C103.657 104.227 103.645 104.225 103.629 104.223C103.598 104.218 103.551 104.211 103.49 104.201C103.368 104.182 103.188 104.153 102.953 104.115C102.484 104.038 101.795 103.921 100.911 103.76C99.1446 103.44 96.5992 102.945 93.4751 102.248C87.2288 100.854 78.6592 98.6489 69.3677 95.4029C50.8482 88.933 29.1985 78.2397 17.5443 61.3645L18.5598 60.6633Z" fill="black"/>
</svg>
