<svg width="39" height="20" viewBox="0 0 39 20" fill="none" xmlns="http://www.w3.org/2000/svg">
<path d="M3.2562 0.451808C2.85541 0.347227 2.44572 0.587352 2.34113 0.988146L0.636868 7.51945C0.532286 7.92025 0.772413 8.32994 1.17321 8.43452C1.574 8.5391 1.98369 8.29897 2.08827 7.89818L3.60317 2.09257L9.40878 3.60748C9.80957 3.71206 10.2193 3.47193 10.3238 3.07114C10.4284 2.67035 10.1883 2.26066 9.7875 2.15608L3.2562 0.451808ZM38.5503 18.3071C38.3104 17.5965 38.3107 17.5964 38.3109 17.5963C38.311 17.5963 38.3112 17.5962 38.3113 17.5962C38.3115 17.5961 38.3117 17.5961 38.3117 17.5961C38.3118 17.596 38.3115 17.5961 38.3109 17.5963C38.3096 17.5968 38.3068 17.5977 38.3026 17.599C38.2942 17.6017 38.28 17.6062 38.2601 17.6123C38.2203 17.6246 38.1575 17.6432 38.0721 17.6668C37.9013 17.7139 37.6402 17.7806 37.2917 17.8544C36.5947 18.0022 35.5483 18.1787 34.1763 18.285C31.4333 18.4977 27.3848 18.4303 22.2215 17.2887L22.0596 18.0211L21.8977 18.7534C27.2126 19.9284 31.4095 20.004 34.2923 19.7805C35.7332 19.6688 36.8448 19.4825 37.6027 19.3219C37.9816 19.2415 38.272 19.1677 38.471 19.1128C38.5705 19.0854 38.6471 19.0627 38.7004 19.0463C38.7271 19.0381 38.7479 19.0315 38.7629 19.0266C38.7704 19.0242 38.7765 19.0222 38.781 19.0207C38.7833 19.02 38.7852 19.0193 38.7868 19.0188C38.7876 19.0186 38.7882 19.0183 38.7888 19.0181C38.7891 19.0181 38.7895 19.0179 38.7896 19.0179C38.79 19.0178 38.7903 19.0176 38.5503 18.3071ZM22.0596 18.0211L22.2215 17.2887C17.2285 16.1849 12.615 12.1333 9.19781 8.2361C7.50267 6.30289 6.12883 4.43913 5.17883 3.05842C4.70416 2.36854 4.33615 1.80049 4.0876 1.40625C3.96334 1.20916 3.869 1.05561 3.80617 0.952083C3.77475 0.900325 3.75122 0.861083 3.73577 0.835174C3.72805 0.822219 3.72234 0.812596 3.71869 0.806412C3.71686 0.803317 3.71554 0.801083 3.71474 0.799721C3.71434 0.799039 3.71407 0.798576 3.71392 0.798332C3.71385 0.798209 3.71384 0.798192 3.71381 0.798131C3.71383 0.798169 3.71388 0.798261 3.06684 1.17751C2.41979 1.55676 2.41991 1.55696 2.42006 1.55722C2.42015 1.55738 2.42034 1.55769 2.42052 1.55801C2.4209 1.55865 2.4214 1.55951 2.42204 1.56059C2.42331 1.56275 2.4251 1.56579 2.42741 1.56969C2.43201 1.57748 2.43868 1.58873 2.44739 1.60333C2.4648 1.63254 2.49036 1.67515 2.52387 1.73036C2.59088 1.84076 2.6897 2.00157 2.81872 2.20623C3.07674 2.61548 3.45579 3.20045 3.94309 3.90867C4.91701 5.32416 6.3267 7.23693 8.06998 9.22504C11.5296 13.1705 16.4125 17.5407 21.8977 18.7534L22.0596 18.0211Z" fill="#484848"/>
</svg>
