<svg width="176" height="59" viewBox="0 0 176 59" fill="none" xmlns="http://www.w3.org/2000/svg">
<path d="M76.9169 1.8641L76.8523 0.631739L76.9169 1.8641ZM172.928 58.3973C173.606 58.4692 174.213 57.9782 174.285 57.3004L175.458 46.2561C175.53 45.5783 175.039 44.9706 174.361 44.8986C173.683 44.8267 173.076 45.3178 173.004 45.9955L171.961 55.8127L162.144 54.7704C161.466 54.6984 160.859 55.1895 160.787 55.8672C160.715 56.545 161.206 57.1527 161.883 57.2247L172.928 58.3973ZM0.999824 21.8729C1.67683 22.9046 1.67654 22.9048 1.67634 22.905C1.67641 22.9049 1.67632 22.905 1.67646 22.9049C1.67674 22.9047 1.67743 22.9043 1.67852 22.9035C1.68069 22.9021 1.68449 22.8997 1.6899 22.8962C1.70071 22.8892 1.71798 22.878 1.74168 22.8629C1.78909 22.8326 1.86226 22.7863 1.96106 22.725C2.15868 22.6023 2.45885 22.4194 2.86066 22.1841C3.66429 21.7137 4.87442 21.034 6.48374 20.2079C9.70243 18.5556 14.5175 16.3178 20.8706 13.997C33.576 9.35573 52.4344 4.3819 76.9814 3.09646L76.9169 1.8641L76.8523 0.631739C52.0362 1.93128 32.9361 6.96185 20.0237 11.6787C13.568 14.037 8.65938 16.3167 5.35661 18.0122C3.7052 18.8599 2.45515 19.5616 1.61379 20.0542C1.19311 20.3004 0.874576 20.4944 0.659112 20.6282C0.551379 20.6951 0.469416 20.7469 0.41333 20.7828C0.385283 20.8007 0.363712 20.8146 0.348621 20.8243C0.341078 20.8292 0.335151 20.8331 0.330849 20.8359C0.328698 20.8373 0.326955 20.8384 0.325617 20.8393C0.324946 20.8397 0.324247 20.8402 0.323913 20.8404C0.323313 20.8408 0.322815 20.8411 0.999824 21.8729ZM76.9169 1.8641L76.9814 3.09646C101.196 1.8284 124.927 15.4123 142.732 29.5151C151.61 36.5461 158.957 43.6606 164.086 49.0184C166.65 51.6964 168.657 53.9334 170.021 55.4986C170.704 56.2811 171.225 56.8956 171.575 57.3131C171.75 57.5218 171.882 57.6813 171.969 57.788C172.013 57.8413 172.046 57.8814 172.067 57.9079C172.078 57.9211 172.086 57.9309 172.091 57.9372C172.094 57.9404 172.096 57.9427 172.097 57.9441C172.098 57.9448 172.098 57.9452 172.098 57.9456C172.098 57.9458 172.098 57.9457 173.058 57.1701C174.018 56.3945 174.018 56.3941 174.017 56.3934C174.017 56.3928 174.016 56.3919 174.015 56.3909C174.013 56.3888 174.011 56.3858 174.008 56.382C174.002 56.3743 173.992 56.3631 173.981 56.3485C173.957 56.3193 173.922 56.2764 173.876 56.2203C173.783 56.108 173.647 55.9428 173.467 55.7282C173.107 55.2989 172.575 54.6721 171.882 53.8768C170.495 52.2861 168.462 50.0206 165.869 47.3117C160.685 41.8957 153.253 34.6991 144.265 27.5804C126.341 13.3839 102.001 -0.68519 76.8523 0.631739L76.9169 1.8641Z" fill="#484848"/>
</svg>
