<svg width="166" height="65" viewBox="0 0 166 65" fill="none" xmlns="http://www.w3.org/2000/svg">
<path d="M112.343 17.3334L112.975 16.2736L112.343 17.3334ZM1.35916 12.1986C0.776718 11.8447 0.591461 11.0856 0.945388 10.5031L6.71291 1.01165C7.06682 0.429207 7.8259 0.243953 8.40834 0.597876C8.9908 0.9518 9.17604 1.71088 8.82213 2.29332L3.69545 10.7302L12.1323 15.8569C12.7148 16.2108 12.9 16.9699 12.5461 17.5523C12.1922 18.1348 11.4331 18.32 10.8507 17.9661L1.35916 12.1986ZM164 64C162.909 64.5774 162.91 64.5777 162.91 64.5781C162.91 64.578 162.91 64.5783 162.91 64.5782C162.91 64.5782 162.91 64.5778 162.909 64.577C162.908 64.5755 162.907 64.5725 162.904 64.5682C162.9 64.5596 162.892 64.5454 162.881 64.5257C162.86 64.4864 162.826 64.4252 162.779 64.3427C162.686 64.1778 162.541 63.9281 162.341 63.5991C161.942 62.941 161.323 61.9659 160.455 60.7181C158.72 58.2225 155.991 54.6359 152.035 50.314C144.124 41.6711 131.302 30.0817 111.711 18.3932L112.343 17.3334L112.975 16.2736C132.78 28.0892 145.787 39.833 153.855 48.6475C157.889 53.0542 160.687 56.7273 162.482 59.3092C163.379 60.6001 164.026 61.6181 164.451 62.3186C164.664 62.6689 164.821 62.9397 164.926 63.1256C164.979 63.2185 165.019 63.2902 165.046 63.34C165.06 63.3648 165.07 63.3842 165.077 63.398C165.081 63.4049 165.084 63.4105 165.086 63.4146C165.087 63.4166 165.088 63.4183 165.089 63.4197C165.089 63.4204 165.09 63.4211 165.09 63.4214C165.09 63.4221 165.091 63.4227 164 64ZM112.343 17.3334L111.711 18.3932C92.3508 6.8429 65.089 5.26854 42.4735 6.65639C31.199 7.34827 21.1458 8.7714 13.9112 10.0218C10.2947 10.6469 7.3848 11.2284 5.38135 11.6531C4.37967 11.8655 3.60475 12.0385 3.08159 12.1582C2.82001 12.2181 2.62138 12.2646 2.48885 12.2959C2.42258 12.3116 2.37282 12.3235 2.33998 12.3314C2.32356 12.3353 2.31137 12.3383 2.30345 12.3402C2.29948 12.3412 2.2966 12.3419 2.29478 12.3423C2.29388 12.3425 2.29333 12.3427 2.29288 12.3428C2.2926 12.3428 2.29259 12.3428 2 11.144C1.70741 9.94512 1.70795 9.94499 1.70874 9.9448C1.70937 9.94464 1.71043 9.94438 1.7117 9.94408C1.7142 9.94347 1.71777 9.9426 1.72243 9.94147C1.73173 9.93922 1.74533 9.93593 1.76317 9.93165C1.79883 9.92308 1.85144 9.9105 1.92061 9.89413C2.05894 9.86141 2.2635 9.81353 2.53117 9.7523C3.06651 9.62983 3.85431 9.45388 4.86954 9.23868C6.89987 8.80829 9.84045 8.22073 13.4908 7.5898C20.7898 6.32824 30.9356 4.8917 42.3223 4.19293C65.0293 2.79947 92.9389 4.31981 112.975 16.2736L112.343 17.3334Z" fill="#484848"/>
</svg>
