<svg width="73" height="72" viewBox="0 0 73 72" fill="none" xmlns="http://www.w3.org/2000/svg">
<rect width="72.6001" height="71.8582" rx="35.9291" fill="#F2B624"/>
<path d="M23.6247 41.6758L20.4871 36.2847V41.6758H18.708V33.8587H20.9507L24.0883 39.2498V33.8587H25.8674V41.6758H23.6247ZM28.9826 33.8587V35.2819H27.2035V33.8587H28.9826ZM28.9934 35.875V41.6758H27.2035V35.875H28.9934ZM32.7799 39.9614L33.9551 35.875H35.7881L33.7179 41.6758H31.7448L29.6315 35.875H31.5507L32.7799 39.9614ZM39.6272 37.8265C39.6272 37.4959 39.5446 37.2587 39.3792 37.1149C39.2211 36.9712 38.9767 36.8993 38.6461 36.8993C38.3513 36.8993 38.1105 36.9747 37.9236 37.1257C37.7439 37.2695 37.6397 37.4779 37.611 37.7511H35.9505C35.9936 37.1832 36.2704 36.698 36.7807 36.2955C37.2983 35.8929 37.9704 35.6917 38.797 35.6917C39.6596 35.6917 40.3101 35.8857 40.7486 36.2739C41.1871 36.6549 41.3991 37.2731 41.3847 38.1284L41.3632 39.39C41.3488 40.4466 41.3919 41.2086 41.4926 41.6758H39.7458L39.7243 40.9749C39.3289 41.5356 38.6784 41.8159 37.7727 41.8159C37.2048 41.8159 36.7268 41.6614 36.3387 41.3523C35.9577 41.0432 35.7672 40.6299 35.7672 40.1124C35.7672 39.7673 35.8571 39.469 36.0368 39.2174C36.2237 38.9659 36.4968 38.7646 36.8562 38.6136C37.2156 38.4555 37.6182 38.3333 38.0638 38.247C38.5095 38.1608 39.0306 38.0961 39.6272 38.053V37.8265ZM37.6002 39.983C37.6002 40.1699 37.6757 40.3208 37.8266 40.4358C37.9847 40.5508 38.1824 40.6083 38.4196 40.6083C39.2535 40.6083 39.6704 40.1519 39.6704 39.239V39.0988C38.9659 39.1635 38.4448 39.257 38.1069 39.3792C37.7691 39.4942 37.6002 39.6955 37.6002 39.983ZM46.0823 37.5785C45.8882 37.557 45.7265 37.5462 45.5971 37.5462C45.1586 37.5462 44.8316 37.6396 44.6159 37.8265C44.4003 38.0134 44.2925 38.3261 44.2925 38.7646V41.6758H42.5134V35.875H44.2278V36.9747C44.5153 36.2416 45.0436 35.8606 45.8128 35.8318C45.935 35.8318 46.0248 35.8354 46.0823 35.8426V37.5785ZM50.3357 37.8265C50.3357 37.4959 50.2531 37.2587 50.0877 37.1149C49.9296 36.9712 49.6852 36.8993 49.3545 36.8993C49.0598 36.8993 48.819 36.9747 48.6321 37.1257C48.4524 37.2695 48.3482 37.4779 48.3194 37.7511H46.659C46.7021 37.1832 46.9789 36.698 47.4892 36.2955C48.0068 35.8929 48.6789 35.6917 49.5055 35.6917C50.3681 35.6917 51.0186 35.8857 51.4571 36.2739C51.8955 36.6549 52.1076 37.2731 52.0932 38.1284L52.0717 39.39C52.0573 40.4466 52.1004 41.2086 52.201 41.6758H50.4543L50.4328 40.9749C50.0374 41.5356 49.3869 41.8159 48.4812 41.8159C47.9133 41.8159 47.4353 41.6614 47.0471 41.3523C46.6662 41.0432 46.4757 40.6299 46.4757 40.1124C46.4757 39.7673 46.5655 39.469 46.7452 39.2174C46.9321 38.9659 47.2053 38.7646 47.5647 38.6136C47.9241 38.4555 48.3266 38.3333 48.7723 38.247C49.218 38.1608 49.7391 38.0961 50.3357 38.053V37.8265ZM48.3087 39.983C48.3087 40.1699 48.3841 40.3208 48.5351 40.4358C48.6932 40.5508 48.8909 40.6083 49.1281 40.6083C49.9619 40.6083 50.3788 40.1519 50.3788 39.239V39.0988C49.6744 39.1635 49.1533 39.257 48.8154 39.3792C48.4776 39.4942 48.3087 39.6955 48.3087 39.983ZM53.1349 41.6758V39.7566H55.1404V41.6758H53.1349Z" fill="black"/>
</svg>
