<svg width="73" height="72" viewBox="0 0 73 72" fill="none" xmlns="http://www.w3.org/2000/svg">
<rect x="1.29757" y="0.367879" width="71.2642" height="71.2642" rx="35.6321" fill="#F4F4F4" stroke="#F4F4F4" stroke-width="0.735758"/>
<path d="M30.5833 19.4667L25.2109 42.3282L29.9117 39.7005L25.5905 57.6861L36.9191 32.6347H33.1526L34.3497 28.2259C34.3497 28.2259 35.4909 25.4284 36.2767 24.7222C37.0626 24.016 37.5998 23.5835 38.6417 23.4083C39.9264 23.1923 40.931 23.4936 41.8535 24.7222C42.6814 25.8249 42.7864 26.847 42.7878 28.2259C42.7892 29.6161 42.6508 30.5496 42.233 31.8755C41.8152 33.2015 41.0943 34.1237 40.16 35.0289C39.2257 35.934 37.5322 36.2844 37.5322 36.2844L35.6636 40.4596C35.6636 40.4596 38.0117 40.71 39.0797 40.6192C40.5525 40.4939 41.941 39.9777 42.5542 39.7005C43.9903 39.0512 44.7944 38.2969 45.7075 37.2907C46.6207 36.2844 47.6856 34.4826 48.3061 32.1675C48.8741 30.0481 49.1275 28.308 48.7148 26.1529C48.3595 24.2971 48.0662 23.1062 46.7878 21.7149C45.5754 20.3954 45.2571 19.8975 43.5177 19.4668C41.9461 19.0775 40.18 18.9614 38.6417 19.4667C37.196 19.9415 35.4592 21.7149 35.4592 21.7149L35.8972 19.4667H30.5833Z" fill="#5235FF"/>
</svg>
