<svg width="71" height="249" viewBox="0 0 71 249" fill="none" xmlns="http://www.w3.org/2000/svg">
<path d="M66.0132 151.261L67.2249 151.494L66.0132 151.261ZM0.937088 241.328C0.593983 241.917 0.793226 242.673 1.3821 243.016L10.9785 248.607C11.5674 248.95 12.3229 248.751 12.666 248.162C13.0091 247.573 12.8099 246.818 12.221 246.475L3.69087 241.505L8.66085 232.974C9.00395 232.386 8.80471 231.63 8.21582 231.287C7.62695 230.944 6.87142 231.143 6.52831 231.732L0.937088 241.328ZM37.5001 1.50018C36.4438 2.13832 36.4438 2.13826 36.4439 2.13849C36.4442 2.13893 36.4445 2.13943 36.445 2.14031C36.4461 2.14207 36.4478 2.14492 36.4502 2.14885C36.4549 2.15674 36.4622 2.16897 36.4721 2.18553C36.4919 2.21867 36.5219 2.2691 36.5618 2.33659C36.6415 2.47156 36.7605 2.67472 36.9158 2.94407C37.2264 3.48279 37.6818 4.28618 38.2573 5.3381C39.4083 7.44201 41.0393 10.5396 42.9513 14.5016C46.7759 22.4265 51.7224 33.8043 56.2028 47.6014C65.1682 75.2101 72.2408 112.426 64.8014 151.027L66.0132 151.261L67.2249 151.494C74.7719 112.335 67.588 74.6706 58.5502 46.8391C54.029 32.9162 49.0373 21.4339 45.1741 13.4288C43.2422 9.4258 41.5919 6.29086 40.4225 4.15352C39.8379 3.0848 39.3734 2.26539 39.0541 1.71144C38.8944 1.43447 38.771 1.22385 38.687 1.08161C38.645 1.01049 38.6129 0.956465 38.5909 0.919786C38.58 0.901442 38.5716 0.887445 38.5658 0.877809C38.5629 0.872992 38.5607 0.869269 38.5591 0.866641C38.5583 0.865327 38.5576 0.864169 38.5572 0.863517C38.5567 0.862636 38.5563 0.86204 37.5001 1.50018ZM66.0132 151.261L64.8014 151.027C57.3566 189.657 41.4816 212.089 27.5545 224.856C20.5838 231.246 14.0845 235.23 9.34336 237.612C6.97268 238.803 5.04181 239.594 3.71194 240.084C3.04704 240.33 2.5325 240.5 2.18853 240.608C2.01654 240.662 1.88721 240.7 1.80305 240.724C1.76097 240.736 1.7302 240.745 1.71103 240.75C1.70144 240.753 1.69476 240.755 1.69103 240.756C1.68916 240.756 1.68802 240.757 1.68763 240.757C1.68743 240.757 1.6877 240.757 1.68759 240.757C1.68804 240.757 1.68868 240.756 2.00335 241.95C2.31803 243.143 2.31904 243.143 2.32023 243.142C2.32088 243.142 2.32226 243.142 2.32356 243.141C2.32614 243.141 2.32948 243.14 2.33356 243.139C2.34171 243.137 2.35282 243.133 2.36686 243.13C2.39494 243.122 2.4347 243.111 2.48584 243.096C2.58811 243.067 2.73588 243.023 2.92662 242.963C3.30806 242.843 3.86141 242.66 4.56626 242.4C5.9759 241.88 7.99207 241.053 10.4515 239.817C15.3705 237.346 22.0638 233.237 29.2222 226.675C43.5534 213.538 59.6834 190.626 67.2249 151.494L66.0132 151.261Z" fill="#484848"/>
</svg>
