<svg width="176" height="64" viewBox="0 0 176 64" fill="none" xmlns="http://www.w3.org/2000/svg">
<path d="M79.8779 62.724L79.8666 63.958L79.8779 62.724ZM172.136 0.237825C172.805 0.111591 173.451 0.5522 173.577 1.22196L175.634 12.1362C175.76 12.806 175.32 13.4512 174.65 13.5775C173.98 13.7037 173.335 13.2631 173.209 12.5933L171.38 2.89178L161.678 4.72029C161.009 4.84653 160.363 4.40591 160.237 3.73616C160.111 3.0664 160.552 2.42113 161.221 2.2949L172.136 0.237825ZM1.00014 45.4916C1.6252 44.4276 1.62491 44.4274 1.62474 44.4273C1.62483 44.4274 1.62476 44.4273 1.62493 44.4274C1.62527 44.4277 1.62605 44.4281 1.62726 44.4288C1.62968 44.4302 1.63384 44.4326 1.63974 44.4361C1.65152 44.4429 1.67023 44.4537 1.69585 44.4683C1.74707 44.4976 1.82591 44.5422 1.93215 44.6012C2.14464 44.7192 2.46673 44.8947 2.89677 45.1195C3.75687 45.5691 5.04871 46.2162 6.7591 46.9963C10.1799 48.5566 15.2745 50.6489 21.9373 52.7577C35.2623 56.9754 54.8599 61.2598 79.8893 61.49L79.8779 62.724L79.8666 63.958C54.5649 63.7253 34.7236 59.3936 21.1925 55.1108C14.4272 52.9694 9.23939 50.8403 5.73487 49.2419C3.98259 48.4426 2.651 47.776 1.75335 47.3067C1.30451 47.0721 0.964141 46.8868 0.733886 46.7589C0.618757 46.695 0.531155 46.6454 0.471286 46.6112C0.441354 46.5941 0.418352 46.5808 0.402305 46.5715C0.394286 46.5669 0.388005 46.5632 0.383465 46.5606C0.381197 46.5593 0.37936 46.5582 0.377962 46.5574C0.377266 46.557 0.376543 46.5565 0.376195 46.5563C0.37558 46.556 0.375077 46.5557 1.00014 45.4916ZM79.8779 62.724L79.8893 61.49C104.572 61.7169 127.394 46.6694 144.163 31.3497C152.523 23.7116 159.325 16.0552 164.037 10.3072C166.392 7.43421 168.223 5.04041 169.463 3.36735C170.083 2.53088 170.556 1.87476 170.872 1.42919C171.031 1.20642 171.15 1.0363 171.229 0.922608C171.268 0.86576 171.298 0.823027 171.317 0.794869C171.327 0.780799 171.334 0.770369 171.339 0.763642C171.341 0.760275 171.343 0.757841 171.344 0.756335C171.344 0.755581 171.345 0.755157 171.345 0.754785C171.345 0.754588 171.345 0.754639 172.364 1.45052C173.383 2.1464 173.383 2.14692 173.382 2.14767C173.382 2.14823 173.381 2.14922 173.381 2.15034C173.379 2.15259 173.377 2.15578 173.374 2.15989C173.368 2.16812 173.36 2.18006 173.349 2.19565C173.328 2.22685 173.296 2.27265 173.255 2.3326C173.171 2.45251 173.047 2.62899 172.885 2.85827C172.559 3.31682 172.077 3.98661 171.446 4.83734C170.184 6.53868 168.329 8.9644 165.945 11.8719C161.18 17.685 154.297 25.4337 145.828 33.1719C128.936 48.6046 105.515 64.1938 79.8666 63.958L79.8779 62.724Z" fill="#484848"/>
</svg>
