<svg width="43" height="178" viewBox="0 0 43 178" fill="none" xmlns="http://www.w3.org/2000/svg">
<path d="M25.6012 1.68305C25.8374 1.04374 26.5471 0.716949 27.1864 0.953132L37.6046 4.80202C38.2439 5.03821 38.5707 5.74795 38.3345 6.38726C38.0983 7.02657 37.3886 7.35337 36.7493 7.11717L27.4887 3.69594L24.0674 12.9566C23.8313 13.5959 23.1215 13.9227 22.4822 13.6865C21.8429 13.4503 21.5161 12.7406 21.7523 12.1012L25.6012 1.68305ZM1.04025 177.164C0.0908073 176.376 0.0906932 176.376 0.0906817 176.376C0.0908072 176.376 0.090891 176.376 0.0911347 176.376C0.091637 176.375 0.0925202 176.374 0.0937844 176.373C0.0963201 176.369 0.100387 176.365 0.105971 176.358C0.117131 176.344 0.134358 176.323 0.157494 176.295C0.203758 176.238 0.273671 176.152 0.36602 176.037C0.550716 175.806 0.825158 175.46 1.17974 175C1.8889 174.081 2.9185 172.711 4.19169 170.917C6.73825 167.328 10.2582 162.044 14.1374 155.281C21.8975 141.751 31.085 122.319 36.8009 98.7097L38.0003 99L39.1997 99.2904C33.4159 123.181 24.1234 142.831 16.2783 156.509C12.355 163.349 8.79114 168.7 6.20452 172.345C4.91112 174.168 3.86179 175.564 3.13368 176.508C2.76961 176.98 2.48582 177.338 2.29195 177.58C2.19502 177.701 2.12056 177.793 2.06978 177.855C2.04439 177.886 2.02492 177.91 2.01152 177.926C2.00482 177.934 1.99964 177.941 1.99599 177.945C1.99418 177.947 1.99274 177.949 1.99168 177.95C1.99116 177.951 1.99066 177.952 1.99039 177.952C1.98999 177.952 1.98969 177.953 1.04025 177.164ZM38.0003 99L36.8009 98.7097C42.4877 75.2203 39.7154 51.2107 35.4899 33.0221C33.3793 23.9369 30.9115 16.327 28.9726 10.9915C28.0033 8.32418 27.1667 6.22669 26.5738 4.79898C26.2774 4.08516 26.0419 3.53889 25.8812 3.17267C25.8009 2.98956 25.7393 2.85147 25.6982 2.75999C25.6776 2.71424 25.6621 2.68014 25.652 2.65788C25.647 2.64676 25.6432 2.63858 25.6408 2.6334C25.6397 2.63081 25.6388 2.62897 25.6383 2.62787C25.6381 2.62732 25.6379 2.62707 25.6378 2.62679C25.6378 2.62672 25.6378 2.62685 26.7588 2.11071C27.8797 1.59457 27.8799 1.59507 27.8802 1.59575C27.8805 1.59623 27.8809 1.5971 27.8813 1.59806C27.8822 1.59997 27.8834 1.60263 27.885 1.60605C27.8881 1.61287 27.8926 1.6227 27.8984 1.63549C27.91 1.66108 27.927 1.69853 27.9491 1.74769C27.9933 1.84599 28.058 1.99104 28.1415 2.18127C28.3083 2.56172 28.5502 3.12293 28.8531 3.85238C29.459 5.31119 30.3092 7.44333 31.2923 10.1485C33.258 15.5578 35.7568 23.2639 37.894 32.4636C42.1642 50.8447 45.0127 75.2797 39.1997 99.2904L38.0003 99Z" fill="#484848"/>
</svg>
