<svg width="152" height="98" viewBox="0 0 152 98" fill="none" xmlns="http://www.w3.org/2000/svg">
<path d="M108.795 62.1214L109.652 63.0092L108.795 62.1214ZM0.509416 87.0158C-0.0173623 87.4482 -0.0938161 88.2258 0.33864 88.7526L7.38593 97.3368C7.81838 97.8636 8.59598 97.94 9.12276 97.5076C9.64952 97.0751 9.72597 96.2975 9.29352 95.7708L3.02927 88.1404L10.6597 81.8761C11.1864 81.4436 11.2629 80.666 10.8304 80.1393C10.398 79.6125 9.62038 79.536 9.09362 79.9685L0.509416 87.0158ZM150.598 1.05321C149.407 0.731385 149.407 0.731003 149.407 0.730726C149.407 0.730775 149.407 0.730604 149.407 0.730702C149.407 0.730905 149.407 0.731531 149.407 0.73258C149.406 0.734678 149.405 0.738468 149.404 0.743952C149.401 0.754913 149.396 0.772617 149.389 0.796971C149.375 0.845693 149.353 0.921024 149.323 1.02228C149.262 1.22479 149.168 1.53098 149.034 1.93524C148.768 2.74377 148.347 3.94457 147.734 5.49288C146.508 8.58949 144.514 13.0761 141.456 18.5946C135.339 29.6307 124.962 44.7984 107.938 61.2336L108.795 62.1214L109.652 63.0092C126.864 46.3925 137.388 31.0261 143.614 19.791C146.727 14.174 148.766 9.5908 150.028 6.40149C150.66 4.80684 151.097 3.56065 151.378 2.70793C151.519 2.28157 151.62 1.95357 151.687 1.72954C151.721 1.61754 151.746 1.53152 151.763 1.4722C151.771 1.44254 151.778 1.41955 151.782 1.40334C151.784 1.39522 151.786 1.3888 151.787 1.38408C151.788 1.38172 151.789 1.37979 151.789 1.37828C151.789 1.37752 151.789 1.37672 151.789 1.37633C151.79 1.37563 151.79 1.37503 150.598 1.05321ZM108.795 62.1214L107.938 61.2336C91.1327 77.4583 64.6156 83.8881 42.0791 86.2125C30.8444 87.3712 20.669 87.5031 13.3019 87.345C9.61942 87.2659 6.64121 87.1145 4.58631 86.983C3.55892 86.9173 2.76251 86.8566 2.2245 86.8125C1.95548 86.7904 1.75109 86.7725 1.61473 86.7602C1.54654 86.754 1.49538 86.7493 1.46165 86.7461C1.44478 86.7445 1.43228 86.7433 1.42418 86.7425C1.42013 86.7421 1.41719 86.7419 1.41536 86.7417C1.41444 86.7416 1.41389 86.7415 1.41344 86.7415C1.41318 86.7415 1.4132 86.7415 1.29244 87.9696C1.17168 89.1977 1.17227 89.1978 1.17312 89.1979C1.17378 89.1979 1.17491 89.198 1.17622 89.1982C1.17885 89.1984 1.18259 89.1988 1.18742 89.1992C1.19711 89.2002 1.21122 89.2015 1.22971 89.2033C1.26667 89.2068 1.32111 89.2118 1.3926 89.2183C1.53559 89.2312 1.74678 89.2497 2.02278 89.2723C2.57471 89.3176 3.38587 89.3794 4.42875 89.4461C6.51441 89.5795 9.52771 89.7326 13.249 89.8125C20.6894 89.9722 30.9707 89.8393 42.3323 88.6675C64.9885 86.3308 92.2227 79.8366 109.652 63.0092L108.795 62.1214Z" fill="#484848"/>
</svg>
