<svg width="29" height="28" viewBox="0 0 29 28" fill="none" xmlns="http://www.w3.org/2000/svg">
<path d="M15.5185 1.82593C15.5185 0.865756 16.2966 0.0864867 17.2568 0.0864867L24.2146 0.0841674C25.1759 0.0841674 25.9552 0.862277 25.9552 1.82361V8.20504L19.583 8.20968L16.9298 10.3782C16.3198 10.7678 15.5208 10.3306 15.5208 9.60703L15.5185 1.82709V1.82593ZM13.1993 1.82593C13.1993 0.865756 12.4211 0.0864867 11.461 0.0864867L4.50321 0.0830078C3.54188 0.0830078 2.76261 0.861118 2.76261 1.82245V8.20388L9.13476 8.20852L11.788 10.377C12.398 10.7667 13.1969 10.3295 13.1969 9.60587L13.1993 1.82593ZM21.6413 12.8424C20.9792 12.4528 18.9858 11.6828 17.8378 11.6828C16.8045 11.6828 15.9569 12.026 15.1845 12.7531L11.2778 16.5822C10.8475 17.0136 10.7501 17.7035 11.0679 18.1442C11.2766 18.4341 11.5793 18.6081 11.9248 18.637C12.2669 18.666 12.5986 18.542 12.8386 18.3008L15.5162 15.8168L23.8516 23.2802H28.2744V12.8435H21.6413V12.8424ZM14.4424 19.9741C13.822 20.598 12.9441 20.9598 12.0257 20.9598C11.926 20.9598 11.8263 20.9551 11.7254 20.9459C10.7153 20.8635 9.78647 20.3359 9.18347 19.4963C8.2059 18.143 8.39724 16.1833 9.63456 14.9436L12.5719 12.0759C12.0419 11.8277 11.4633 11.6816 10.8533 11.6816C9.68907 11.6816 7.86961 12.4899 7.13325 12.8412H0.443359V23.2779H6.85726L12.8003 27.9164H15.9174L21.0673 23.8971L15.5266 18.9351L14.4424 19.9741Z" fill="white"/>
</svg>
