<svg width="30" height="30" viewBox="0 0 30 30" fill="none" xmlns="http://www.w3.org/2000/svg">
<path d="M9.65056 16.1997C8.58286 16.1997 7.53915 15.8831 6.6514 15.2899C5.76364 14.6967 5.07173 13.8536 4.66314 12.8672C4.25455 11.8808 4.14765 10.7954 4.35594 9.7482C4.56424 8.70102 5.07838 7.73913 5.83335 6.98416C6.58832 6.22919 7.55022 5.71504 8.59739 5.50675C9.64457 5.29845 10.73 5.40536 11.7164 5.81395C12.7028 6.22253 13.5459 6.91445 14.1391 7.8022C14.7323 8.68996 15.0489 9.73367 15.0489 10.8014C15.0473 12.2326 14.478 13.6048 13.466 14.6168C12.454 15.6289 11.0818 16.1981 9.65056 16.1997ZM18.6478 24.5971C18.6459 23.0069 18.0133 21.4824 16.8889 20.3579C15.7644 19.2334 14.2399 18.6009 12.6496 18.599H6.65148C5.06125 18.6009 3.5367 19.2334 2.41224 20.3579C1.28778 21.4824 0.655225 23.0069 0.65332 24.5971L0.65332 29.3957H18.6478V24.5971ZM21.6469 11.4012C20.5792 11.4012 19.5355 11.0846 18.6477 10.4914C17.76 9.89822 17.068 9.05511 16.6595 8.06869C16.2509 7.08227 16.144 5.99685 16.3523 4.94967C16.5606 3.9025 17.0747 2.9406 17.8297 2.18563C18.5846 1.43066 19.5465 0.916518 20.5937 0.708222C21.6409 0.499926 22.7263 0.606831 23.7127 1.01542C24.6991 1.42401 25.5422 2.11593 26.1354 3.00368C26.7286 3.89143 27.0452 4.93515 27.0452 6.00284C27.0436 7.43408 26.4744 8.80625 25.4623 9.81829C24.4503 10.8303 23.0781 11.3996 21.6469 11.4012ZM23.4463 13.8004H17.4482C17.2376 13.8101 17.0278 13.8313 16.8196 13.864C16.3834 14.8733 15.7391 15.7792 14.9289 16.5224C16.688 17.0201 18.2368 18.0776 19.3409 19.5347C20.4449 20.9918 21.0439 22.769 21.0471 24.5971H29.4445V19.7986C29.4426 18.2084 28.81 16.6838 27.6856 15.5594C26.5611 14.4349 25.0365 13.8023 23.4463 13.8004Z" fill="#848484"/>
</svg>
