<svg width="30" height="30" viewBox="0 0 30 30" fill="none" xmlns="http://www.w3.org/2000/svg">
<path d="M9.64958 16.1997C8.58189 16.1997 7.53817 15.8831 6.65042 15.2899C5.76267 14.6967 5.07075 13.8536 4.66216 12.8672C4.25357 11.8808 4.14667 10.7954 4.35497 9.7482C4.56326 8.70102 5.0774 7.73913 5.83238 6.98416C6.58735 6.22919 7.54924 5.71504 8.59641 5.50675C9.64359 5.29845 10.729 5.40536 11.7154 5.81395C12.7019 6.22253 13.545 6.91445 14.1381 7.8022C14.7313 8.68996 15.0479 9.73367 15.0479 10.8014C15.0463 12.2326 14.4771 13.6048 13.465 14.6168C12.453 15.6289 11.0808 16.1981 9.64958 16.1997ZM18.6468 24.5971C18.6449 23.0069 18.0124 21.4824 16.8879 20.3579C15.7634 19.2334 14.2389 18.6009 12.6487 18.599H6.6505C5.06028 18.6009 3.53573 19.2334 2.41127 20.3579C1.28681 21.4824 0.654249 23.0069 0.652344 24.5971L0.652344 29.3957H18.6468V24.5971ZM21.6459 11.4012C20.5782 11.4012 19.5345 11.0846 18.6467 10.4914C17.759 9.89822 17.0671 9.05511 16.6585 8.06869C16.2499 7.08227 16.143 5.99685 16.3513 4.94967C16.5596 3.9025 17.0737 2.9406 17.8287 2.18563C18.5837 1.43066 19.5456 0.916518 20.5927 0.708222C21.6399 0.499926 22.7253 0.606831 23.7117 1.01542C24.6982 1.42401 25.5413 2.11593 26.1344 3.00368C26.7276 3.89143 27.0442 4.93515 27.0442 6.00284C27.0426 7.43408 26.4734 8.80625 25.4613 9.81829C24.4493 10.8303 23.0771 11.3996 21.6459 11.4012ZM23.4453 13.8004H17.4472C17.2366 13.8101 17.0268 13.8313 16.8186 13.864C16.3824 14.8733 15.7382 15.7792 14.928 16.5224C16.687 17.0201 18.2359 18.0776 19.3399 19.5347C20.4439 20.9918 21.0429 22.769 21.0461 24.5971H29.4435V19.7986C29.4416 18.2084 28.809 16.6838 27.6846 15.5594C26.5601 14.4349 25.0356 13.8023 23.4453 13.8004Z" fill="white"/>
</svg>
