<svg width="29" height="28" viewBox="0 0 29 28" fill="none" xmlns="http://www.w3.org/2000/svg">
<path d="M15.5195 1.82642C15.5195 0.866244 16.2976 0.086975 17.2578 0.086975L24.2155 0.0846557C25.1769 0.0846557 25.9561 0.862766 25.9561 1.8241V8.20552L19.584 8.21016L16.9308 10.3787C16.3208 10.7683 15.5218 10.3311 15.5218 9.60751L15.5195 1.82758V1.82642ZM13.2002 1.82642C13.2002 0.866244 12.4221 0.086975 11.462 0.086975L4.50419 0.0834961C3.54286 0.0834961 2.76359 0.861606 2.76359 1.82294V8.20436L9.13574 8.209L11.789 10.3775C12.3989 10.7671 13.1979 10.33 13.1979 9.60635L13.2002 1.82642ZM21.6423 12.8429C20.9802 12.4532 18.9868 11.6832 17.8387 11.6832C16.8055 11.6832 15.9578 12.0265 15.1855 12.7536L11.2787 16.5827C10.8485 17.0141 10.7511 17.704 11.0688 18.1447C11.2776 18.4346 11.5802 18.6085 11.9258 18.6375C12.2679 18.6665 12.5995 18.5424 12.8396 18.3012L15.5172 15.8173L23.8526 23.2807H28.2754V12.844H21.6423V12.8429ZM14.4434 19.9746C13.823 20.5985 12.9451 20.9603 12.0267 20.9603C11.927 20.9603 11.8272 20.9556 11.7263 20.9464C10.7163 20.864 9.78745 20.3364 9.18445 19.4968C8.20688 18.1435 8.39822 16.1838 9.63554 14.9441L12.5729 12.0764C12.0429 11.8282 11.4643 11.6821 10.8543 11.6821C9.69004 11.6821 7.87059 12.4903 7.13422 12.8417H0.444336V23.2784H6.85823L12.8013 27.9169H15.9184L21.0683 23.8976L15.5276 18.9356L14.4434 19.9746Z" fill="#848484"/>
</svg>
