<svg width="31" height="30" viewBox="0 0 31 30" fill="none" xmlns="http://www.w3.org/2000/svg">
<path d="M30.3148 27.202C30.541 27.4308 30.6624 27.7358 30.6522 28.0499C30.6421 28.3639 30.5012 28.6612 30.2607 28.8764C30.0201 29.0916 29.6996 29.2071 29.3695 29.1975C29.0395 29.1878 28.727 29.0538 28.5007 28.8249L21.6788 21.9129C20.3898 21.9519 14.4537 22.12 16.3137 19.4506C16.4695 19.3 16.6653 19.1924 16.8803 19.1395C17.0953 19.0865 17.3213 19.0901 17.5343 19.1499C18.9252 19.5604 20.3934 19.6776 21.8368 19.4932C22.0862 19.4628 22.3396 19.4899 22.5757 19.5724C22.8117 19.6548 23.0234 19.79 23.193 19.9667L30.3148 27.202ZM19.4541 17.3601C20.2711 17.3612 21.0802 17.2089 21.8352 16.9119C22.5901 16.6149 23.276 16.1791 23.8536 15.6294L30.2874 9.5069C30.4031 9.39699 30.4949 9.26648 30.5576 9.12282C30.6202 8.97916 30.6526 8.82517 30.6527 8.66962C30.6528 8.51408 30.6207 8.36004 30.5583 8.2163C30.4958 8.07255 30.4042 7.94192 30.2887 7.83186C30.1732 7.7218 30.036 7.63446 29.885 7.57483C29.734 7.51521 29.5721 7.48446 29.4087 7.48435C29.2452 7.48424 29.0833 7.51477 28.9322 7.57419C28.7811 7.63361 28.6438 7.72077 28.5281 7.83067L22.0943 13.9532C21.5479 14.4685 20.8475 14.8106 20.0889 14.9326C19.3304 15.0547 18.5507 14.9507 17.8566 14.635L26.5548 6.35924C26.6736 6.25004 26.7684 6.11942 26.8336 5.97499C26.8988 5.83057 26.9332 5.67523 26.9346 5.51805C26.936 5.36087 26.9046 5.20499 26.842 5.05951C26.7794 4.91403 26.6871 4.78186 26.5702 4.67071C26.4534 4.55956 26.3145 4.47166 26.1616 4.41214C26.0087 4.35262 25.8448 4.32267 25.6796 4.32404C25.5144 4.3254 25.3512 4.35806 25.1994 4.4201C25.0476 4.48214 24.9103 4.57232 24.7955 4.68538L16.0948 12.9612C15.7629 12.3008 15.6537 11.5589 15.7819 10.8372C15.9102 10.1155 16.2698 9.44907 16.8114 8.92922L23.249 2.80792C23.4756 2.58465 23.601 2.28563 23.5982 1.97525C23.5953 1.66486 23.4645 1.36796 23.2338 1.14848C23.0031 0.928996 22.691 0.8045 22.3648 0.801803C22.0386 0.799105 21.7243 0.918423 21.4896 1.13406L15.0546 7.25536C14.0427 8.22133 13.4117 9.48959 13.2678 10.8465C13.1239 12.2034 13.4759 13.566 14.2645 14.7049L1.15557 27.1771C0.928926 27.4004 0.803517 27.6994 0.806352 28.0098C0.809186 28.3202 0.940038 28.6171 1.17072 28.8365C1.40141 29.056 1.71347 29.1805 2.0397 29.1832C2.36593 29.1859 2.68022 29.0666 2.91488 28.851L16.0238 16.3787C17.0414 17.0187 18.2343 17.36 19.4541 17.3601ZM7.57443 16.1349C8.60588 17.0594 9.5577 15.8318 10.2507 15.1748C10.5374 14.8991 10.7485 14.5606 10.8654 14.189C10.9823 13.8175 11.0016 13.4243 10.9213 13.044C10.1537 11.0056 12.0299 8.62617 10.4772 6.98664L4.93298 1.46551C4.59099 1.14938 4.15917 0.93546 3.69085 0.850168C3.22252 0.764876 2.7382 0.811945 2.29767 0.985565C1.85714 1.15919 1.4797 1.45175 1.21195 1.82715C0.944203 2.20254 0.797868 2.64432 0.791016 3.09794C1.08589 8.55988 3.19856 11.3465 7.57443 16.1349Z" fill="#848484"/>
</svg>
