<svg width="29" height="29" viewBox="0 0 29 29" fill="none" xmlns="http://www.w3.org/2000/svg">
<path d="M8.99724 15.5952C7.92954 15.5952 6.88583 15.2786 5.99808 14.6854C5.11032 14.0923 4.41841 13.2491 4.00982 12.2627C3.60123 11.2763 3.49433 10.1909 3.70262 9.14371C3.91092 8.09653 4.42506 7.13464 5.18003 6.37967C5.935 5.62469 6.8969 5.11055 7.94407 4.90226C8.99125 4.69396 10.0767 4.80087 11.0631 5.20945C12.0495 5.61804 12.8926 6.30996 13.4858 7.19771C14.079 8.08547 14.3956 9.12918 14.3956 10.1969C14.394 11.6281 13.8247 13.0003 12.8127 14.0123C11.8006 15.0244 10.4285 15.5936 8.99724 15.5952ZM17.9945 23.9926C17.9926 22.4024 17.36 20.8779 16.2355 19.7534C15.1111 18.6289 13.5865 17.9964 11.9963 17.9945H5.99816C4.40793 17.9964 2.88338 18.6289 1.75892 19.7534C0.634463 20.8779 0.00190484 22.4024 0 23.9926L0 28.7912H17.9945V23.9926ZM20.9935 10.7967C19.9259 10.7967 18.8821 10.4801 17.9944 9.8869C17.1066 9.29372 16.4147 8.45062 16.0061 7.4642C15.5975 6.47778 15.4906 5.39236 15.6989 4.34518C15.9072 3.298 16.4214 2.33611 17.1763 1.58114C17.9313 0.826169 18.8932 0.312026 19.9404 0.10373C20.9876 -0.104566 22.073 0.00233903 23.0594 0.410927C24.0458 0.819515 24.8889 1.51143 25.4821 2.39919C26.0753 3.28694 26.3919 4.33065 26.3919 5.39834C26.3903 6.82959 25.821 8.20175 24.809 9.21379C23.797 10.2258 22.4248 10.7951 20.9935 10.7967ZM22.793 13.1959H16.7948C16.5843 13.2056 16.3744 13.2268 16.1662 13.2595C15.7301 14.2688 15.0858 15.1747 14.2756 15.9179C16.0346 16.4156 17.5835 17.4731 18.6875 18.9302C19.7915 20.3873 20.3905 22.1645 20.3937 23.9926H28.7912V19.1941C28.7892 17.6039 28.1567 16.0793 27.0322 14.9549C25.9078 13.8304 24.3832 13.1979 22.793 13.1959Z" fill="white"/>
</svg>
